<svg id="Layer_1" data-name="Layer 1" xmlns="http://www.w3.org/2000/svg" viewBox="0 0 298.35 101.09"><defs><style>.cls-1{fill:#fff;}</style></defs><title>color_logo</title><path class="cls-1" d="M307,60.32a4.29,4.29,0,1,0-4.3,4.27A4.29,4.29,0,0,0,307,60.32Z" transform="translate(-127.77 -20.19)"/><path class="cls-1" d="M259.51,56.31a4.62,4.62,0,1,0,4.3,4.47A4.48,4.48,0,0,0,259.51,56.31Z" transform="translate(-127.77 -20.19)"/><path class="cls-1" d="M238.1,56.38a4.63,4.63,0,1,0,4.3,4.48A4.45,4.45,0,0,0,238.1,56.38Z" transform="translate(-127.77 -20.19)"/><path class="cls-1" d="M302.62,77a4.3,4.3,0,0,0,.14,8.6h0a4.3,4.3,0,1,0-.15-8.59Z" transform="translate(-127.77 -20.19)"/><path class="cls-1" d="M127.77,20.19V121.28H426.13V20.19Zm98.67,41.18a9.67,9.67,0,0,1-1.79,6.22,7.92,7.92,0,0,1-6.33,3.29,8.11,8.11,0,0,1-5.66-2.46,7.9,7.9,0,0,1-5.61,2.46,8.45,8.45,0,0,1-7.13-4.34,11.23,11.23,0,0,1-1.1-5.34V53.81c.05-1.83,1-3,2.51-3s2.56,1.23,2.56,3v6.92a6.81,6.81,0,0,0,.34,2.82A3.11,3.11,0,0,0,207,65.43a3.3,3.3,0,0,0,3.11-3.54V53.81c0-1.83,1-3,2.51-3h0c1.48,0,2.5,1.23,2.5,3v6.92a6.59,6.59,0,0,0,.35,2.82,3.11,3.11,0,0,0,2.78,1.88,3.28,3.28,0,0,0,3.07-3.54V53.81c0-1.83,1-3,2.56-3s2.52,1.23,2.51,3Zm33,9.62a9.46,9.46,0,0,1-9-7.31H247.2a9.52,9.52,0,0,1-9.14,7.38c-5.22,0-9.4-4.53-9.4-10.17s4.27-10,9.44-10a9.63,9.63,0,0,1,9.15,7.38h3.16a9.61,9.61,0,0,1,9.1-7.43A9.8,9.8,0,0,1,269,60.72C269,66.5,264.79,71,259.47,71Zm30.8-3.23c0,1.89-1,3.12-2.57,3.12s-2.6-1.26-2.6-3.12v-7a4.3,4.3,0,1,0-8.58.13v6.84c0,1.89-1,3.12-2.56,3.12s-2.62-1.26-2.62-3.12V61.08c0-5.78,4.18-10.29,9.51-10.29s9.42,4.5,9.42,10.16ZM302.65,90.7a9.42,9.42,0,0,1-9.31-9.44,9.55,9.55,0,0,1,6.85-9.16V69.35a9.42,9.42,0,1,1,5.05,0v2.83h0a9.46,9.46,0,0,1-2.58,18.56ZM322.09,69a11.49,11.49,0,0,1-.25,3.56c-.67,2.68-3,4.79-5.27,4.79a2.75,2.75,0,0,1-3-2.73,2.59,2.59,0,0,1,1.23-2.26l1-.7c.84-.56,1.22-1.83,1.22-3.88V53.82c0-1.84,1-3,2.56-3s2.51,1.23,2.51,3ZM332,67.84c-.05,1.84-1,3-2.52,3s-2.54-1.22-2.54-3v-14c0-1.84,1-3,2.52-3S332,52,332,53.82Zm23.13-.08c0,1.89-1,3.12-2.57,3.12s-2.59-1.26-2.59-3.12v-7a4.3,4.3,0,1,0-8.58.13v6.84c0,1.89-1,3.12-2.58,3.12s-2.62-1.26-2.62-3.12V61.08c0-5.78,4.19-10.29,9.53-10.29s9.41,4.5,9.41,10.16Z" transform="translate(-127.77 -20.19)"/></svg>