<svg id="Layer_1" data-name="Layer 1" xmlns="http://www.w3.org/2000/svg" viewBox="0 0 76.92 131.94"><defs><style>.cls-1{fill:#cf3339;}.cls-2{fill:#00a0df;}.cls-3{fill:#6f7271;}</style></defs><title>icon06</title><path class="cls-1" d="M80.25,147.82c2.7.32,4.44,1.12,7.21,1.59,1.4.21,2.78.89,4.21.89a10.61,10.61,0,0,1,3.79.67h.07a1.36,1.36,0,0,0,.25.2c.92.15,1.8.24,2.75.44,2.38.49,5,1.56,7.35,2.27,1.74.5,3,.8,4.68,1.36,3.08,1,4.94.82,7.87,1.2.9.13,2,.54,2.81.56,0,0,2,.34.83-1.27-1.88-2.08-3.18-2.78-4.86-5-1-1.34-2.44-2.85-3.38-4.26a86.66,86.66,0,0,1-4.67-7.42c-1-1.83-.29-2.2-1.26-4.07-1.16-2.45-3-6.62-4-9.2-.76-2.37-1.33-5.29-1.93-7.11-.9-2.82-1-7.1-1.64-10-.44-2-1.09-9.69-1.56-14a51.84,51.84,0,0,1-.13-6.21,2.92,2.92,0,0,0-.21-.32c-.32-.34-.82-1.36-2.7,0a34.8,34.8,0,0,0-3.44,3.47c-.17.25-1.79,3.08-1.93,3.38a40.07,40.07,0,0,0-4.48,6.41c-4.86,8.2-8.85,14.59-11.26,18.33-4.07,6.13-7.79,11.24-11.5,17.58-1.37,2.33-2.64,4.52-.75,6.17,1.47,1.36,5,2.12,7.28,2.95,1.6.65,3.21,1.16,4.78,1.65a2.43,2.43,0,0,1,.69-.4A16.63,16.63,0,0,1,80.25,147.82Z" transform="translate(-61.47 -34)"/><path class="cls-2" d="M118.43,52.18c3.45-6-1.12-10.63-4.19-15.4-8.81-4.28-18.71-4.28-23.07,4.74-.93,5.38-3.53,10.84,1.64,15.11C102.25,59.84,110.79,59.51,118.43,52.18Z" transform="translate(-61.47 -34)"/><path class="cls-3" d="M138.15,161.05a5.38,5.38,0,0,0-2.23-2.75c-.57-.38-2-1.59-2.14-1.73a53,53,0,0,1-5.29-5.11c-1.12-1.22-2.33-2.12-3.36-3.43s-1.86-3.06-2.84-4.47a60,60,0,0,1-3.81-6c-.6-1.15-1.9-3.8-2.44-5-1-2.25-2-4.84-3-7.11-.48-1.2-.5-2.6-.89-3.79-.74-1.94-.81-2.94-1.51-5.42-.5-1.71-1.21-6-1.53-7.72-.61-2.57-.78-8.79-1-10.87a63.87,63.87,0,0,1-.63-9.61l-.17-6-.76-4.47-.64-7.85c-1.68-4-3.73-3-5.18.14a22.58,22.58,0,0,0-.93,2.66c-.16.66-.3,1.36-.43,2.12-.3,1.59-.49,3-.66,4.34-.28,3,0,9.43,0,9.56a51.84,51.84,0,0,0,.13,6.21c.47,4.31,1.12,12,1.56,14,.6,2.85.74,7.13,1.64,10,.6,1.82,1.17,4.74,1.93,7.11.92,2.58,2.79,6.75,4,9.2,1,1.87.21,2.24,1.26,4.07a86.66,86.66,0,0,0,4.67,7.42c.94,1.41,2.36,2.92,3.38,4.26,1.68,2.23,3,2.93,4.86,5,1.12,1.61-.83,1.27-.83,1.27-.81,0-1.91-.43-2.81-.56-2.93-.38-4.79-.22-7.87-1.2-1.69-.56-2.94-.86-4.68-1.36-2.4-.71-5-1.78-7.35-2.27-1-.2-1.83-.29-2.75-.44a1.36,1.36,0,0,1-.25-.2h-.07a10.61,10.61,0,0,0-3.79-.67c-1.43,0-2.81-.68-4.21-.89-2.77-.47-4.51-1.27-7.21-1.59a16.63,16.63,0,0,0-5.08-.09,2.43,2.43,0,0,0-.69.4c-.86.64-1.35,1.85-.32,2.7a8.72,8.72,0,0,0,3.31,1.22,43.44,43.44,0,0,1,4.77,1.51,37.63,37.63,0,0,0,4.48,1.38,15.42,15.42,0,0,1,2.31.47c.5.18,1.07.43,1.61.61.09,0,2.47.72,3.66,1.15.82.31,2.18,1.17,3,1.48,2.45.81,5,1.62,7.67,2.4,2,.55,4,1.12,6,1.73l4.14,1.1c1.28.35,2.47.67,3.78,1a22.07,22.07,0,0,0,4.4.78c2.86.09,5.84.39,8.75.25S139.48,164.48,138.15,161.05Z" transform="translate(-61.47 -34)"/></svg>