<svg id="Layer_1" data-name="Layer 1" xmlns="http://www.w3.org/2000/svg" viewBox="0 0 146.14 122.93"><defs><style>.cls-1{fill:#cf3339;}.cls-2{fill:#a8ad00;}.cls-3{fill:#f3c300;}.cls-4{fill:#6f7271;}</style></defs><title>icon05</title><path class="cls-1" d="M154.59,96.14l-1.91,0a34.59,34.59,0,0,0-7.81,1.29,26.55,26.55,0,0,1-4.86.66,28.38,28.38,0,0,0-3.52.36L134,98.9a26.71,26.71,0,0,1-4.15.73l-4.31.27c-4.89.29-9.91.57-14.73,1.95a77.75,77.75,0,0,0-8.5,3.18l-1,.39v.38a4.91,4.91,0,0,0,1.08.44,50.78,50.78,0,0,0,8.22,2.56c5.44.87,10,2.94,15.13,4.48,3.11,1,2.52,1.31,5.62,2,3.6.82,2.82.94,6.4,1.75,2.24.47,2,1.34,4.31,1.68,1.33.24,2.54.45,3.87.8.67.1,1.41.52,1.89.62a1.93,1.93,0,0,0,2.42-1.3c-.07-.32.46-.81.62-1.11A11.24,11.24,0,0,0,152,114.5a30.94,30.94,0,0,0,1.41-3.38c1.23-6.15,4.06-9.48,5.23-13a22.65,22.65,0,0,1,.63-2.43L158,96A11.78,11.78,0,0,1,154.59,96.14Z" transform="translate(-26.86 -38.32)"/><path class="cls-2" d="M93.33,113.1c-.41-1.15-1-2.7-1.33-3.59a27.23,27.23,0,0,0-7.23,3.32l-1,.64c-2.41,1.71-4.68,3.38-7.31,4.92l-2,1.09-2.13,2.2-3.41,3.84c-1,1.22-.84.41-1.8,1.64l-5.21,4.3-4.55,3.27s-1.3,1.47-2.78,2.82a21.2,21.2,0,0,1-2.52,2,1.41,1.41,0,0,0-.47.92,1,1,0,0,0,.29.68l2.44,1.64c1.26.67,3.19,1.31,4.15,2.59l8,3.28,5.12,3s2.93,1.94,2.77,1.85l4.19,2,1.05.69,2.7,1.32a1,1,0,0,0,.8.28c.74-.32,1.37-2.61,1.51-4a16.22,16.22,0,0,1,1.42-6,15.71,15.71,0,0,0,1.46-5.41l1.24-4c1.09-3,2.53-7.15,2.53-9.88l.64-4s1.31-7,1.77-9.27a7.84,7.84,0,0,0-.16-.88A10.89,10.89,0,0,0,93.33,113.1Z" transform="translate(-26.86 -38.32)"/><path class="cls-3" d="M116.59,46.89c-.33,5.46-2.56,9.75-4.75,13.93a44.1,44.1,0,0,0-3.78,8.64l-1.32,4.13-1.51,5.09-.51,2.14-.55,2.4-.78,3.09-.5,2-.57,2.35L101.41,94a9.47,9.47,0,0,1-.4,1.38,11.41,11.41,0,0,1,1.58.51l.45-.07a26.92,26.92,0,0,1,3.31-.22,22.78,22.78,0,0,1,2.54-.92c3.6-1.05,3.28-2.14,6.38-4.46,1.67-1.24,5.35-2.76,7-3.94,2.12-1.53,5.7-3.59,7.83-4.84l6-4c.46-.19,1.38-.58,2.3-1,0,0,1.92-.85.25-3.57-1.76-2.31-4.2-5.24-5.11-6.49C131,63,132,63.72,130.11,61.62c-1.15-1.28-2.09-4-3.4-5.2s-4.56-8.15-5.77-9.13c-2.32-1.89-3.36-5.46-5.71-7l0,.05a8.52,8.52,0,0,1,1.4,5.17Z" transform="translate(-26.86 -38.32)"/><path class="cls-4" d="M172.92,91.36c-1.09-4.79-11.31-3.58-12.49-3.45h0a17.06,17.06,0,0,0-2.88.62,13.94,13.94,0,0,1-4,.66c-1.8.18-3.7.36-5.51.64l-4.08.54A40.91,40.91,0,0,0,137,91.56a40.9,40.9,0,0,1-8.1,1.75,41.45,41.45,0,0,1-4.44,0,20.61,20.61,0,0,0-7.33.73,36.59,36.59,0,0,1-4.5.92l-2,.31a34.43,34.43,0,0,1-4.23.3,26.92,26.92,0,0,0-3.31.22l-.45.07a11.41,11.41,0,0,0-1.58-.51,9.47,9.47,0,0,0,.4-1.38l.91-3.33.57-2.35.5-2,.78-3.09.55-2.4.51-2.14,1.51-5.09,1.32-4.13a44.1,44.1,0,0,1,3.78-8.64c2.19-4.18,4.42-8.47,4.75-13.93V45.48a8.05,8.05,0,0,0-1.44-5.12,4,4,0,0,0-2.37-1.58l-1.1-.46-1,.11c-1.33.16-3,.3-3.92,1.66a8.31,8.31,0,0,0-1,2.83l-.81,2.72-.64,2.09L103.76,50a24.25,24.25,0,0,1-1.8,5.5c-.35.83-.8,1.66-1.16,2.68a17.39,17.39,0,0,0-.58,2.46,15.25,15.25,0,0,1-.87,3,17.28,17.28,0,0,0-1.29,5.24,23.06,23.06,0,0,1-.77,3.89l-1.36,4.64-.86,3.12a77.13,77.13,0,0,0-2.64,11.06,18.39,18.39,0,0,1-3.77-3s-6.46-6.5-8-8.49a33,33,0,0,0-4.94-4.89c-1-.9-2-1.77-3-2.75A64.8,64.8,0,0,1,66.86,66s-3.19-4.08-4.23-5.59c-.87-1.25-1.76-2.45-2.9-3.84a5.38,5.38,0,0,0-2-1.69l-1.06-.69-1.29-.28A5,5,0,0,0,53.66,55a3.33,3.33,0,0,0-.47,1.84A4,4,0,0,0,53.3,58a5.15,5.15,0,0,0,1.84,2.85l.81.77a18.07,18.07,0,0,1,2.57,4.71,23.17,23.17,0,0,0,2.35,4.47s4.16,6.39,5.44,7.38L68.07,80A27.54,27.54,0,0,1,69.92,83,17.13,17.13,0,0,0,73,87.4a31.5,31.5,0,0,1,2.43,2.92s4.66,5.88,5.89,8a27.23,27.23,0,0,0,1.74,2.54,50.52,50.52,0,0,0-6.21,2.45s-8,4.26-10.15,5.14a44.64,44.64,0,0,1-4.63,1.64A44.3,44.3,0,0,0,57,112a29.21,29.21,0,0,0-4.74,2.81l-2.65,1.76c-1.52.87-7.41,3.64-8.69,4.32L35,124.26c-4.31,2.37-7.44,4.09-8,8.58a10.77,10.77,0,0,0-.14,1.63c0,2.87,1.34,4.64,4.3,6.07,4.26,2,5.91,1.32,10.37-.55l1.78-1.07a26.52,26.52,0,0,1,4-2.91l1.7-1s5-3.46,6.23-4.16L59,129c1.48-.72,3-1.45,4.43-2.24A27.08,27.08,0,0,0,67.16,124l1-.84a27.9,27.9,0,0,1,5.15-3.09l1.11-.59,2-1.09c2.63-1.54,4.9-3.21,7.31-4.92l1-.64A27.23,27.23,0,0,1,92,109.51c.34.89.92,2.44,1.33,3.59a10.89,10.89,0,0,1,.2,1.33,7.84,7.84,0,0,1,.16.88,22.53,22.53,0,0,0,.62,2.42l.47,1.85a23.66,23.66,0,0,0,1.8,4.57,17.19,17.19,0,0,1,1.84,5.07c.8,5,3.36,10.08,5.75,15,2.21,4.51,3.32,7.17,3.32,7.17,1.26,3,3.49,8.48,6.06,9.58,1.28.48,1.94.2,2.27-.13a2.1,2.1,0,0,0,.55-1.52,5.15,5.15,0,0,0-.43-1.91l-.82-2.09a21.82,21.82,0,0,1-1.27-3.13l-1.41-4.38a82.52,82.52,0,0,1-2.66-9.18,20.35,20.35,0,0,0-.83-2.71,13.86,13.86,0,0,1-.89-3.33,37.52,37.52,0,0,0-1.34-5.29l-1.83-6.87c-.46-2-.93-4-1.55-6l-.3-.88a27.7,27.7,0,0,1-1.68-7.66v-.47l1-.39a77.75,77.75,0,0,1,8.5-3.18c4.82-1.38,9.84-1.66,14.73-1.95l4.31-.27A26.71,26.71,0,0,0,134,98.9l2.48-.49a28.38,28.38,0,0,1,3.52-.36,26.55,26.55,0,0,0,4.86-.66,34.59,34.59,0,0,1,7.81-1.29l1.91,0a11.54,11.54,0,0,0,3.33-.1,19.8,19.8,0,0,1,3.62-.8,25.08,25.08,0,0,0,3.69-.16l1.11-.06c2-.08,5.11-.26,6.23-1.74A2.2,2.2,0,0,0,172.92,91.36Z" transform="translate(-26.86 -38.32)"/></svg>