<svg id="Layer_1" data-name="Layer 1" xmlns="http://www.w3.org/2000/svg" viewBox="0 0 115.07 133.58"><defs><style>.cls-1{fill:#f3c300;}.cls-2{fill:#6f7271;}</style></defs><title>icon04</title><path class="cls-1" d="M104.15,124.17l-1.45-.11c-.28-.07-1.72-.61-1.72-.61l-.38-.36a1.23,1.23,0,0,1-.41-2.09l1.78-1.76a5.08,5.08,0,0,1,1.5-1.21c.48-.26.89-.5,1.52-.8.92-.5,1.91-.91,3-1.42s.34-.11,1.61-.71a1.93,1.93,0,0,0,.49-.27c-.08-.16-.14-.37-.24-.55-2.27-4.44-4.61-9.39-7.12-13.76-.44-.71-.83-1.47-1.28-2.21l-.63.4-4.68,3-2.64,1.87-.77.3H91.2a5.32,5.32,0,0,1-1.89-.37c-1-.12-1.3-1.41-1.3-1.41l-.18-.6.18-.61.52-.74.91-1.34,2-1.93c2.07-1.33,4-3.35,6-4.73.1-.11.21-.17.29-.27-3.52-6-7.34-11.94-12.42-16.65-.32.4-.63.76-.95,1.18-2,3-5,5.35-6.9,8.34L75.29,86c-1.17.62-1.79,0-1.79,0-.72-.12-1.22-1-1.22-1l-.35-.62a1.74,1.74,0,0,1-.41-1.68l.18-1.42,1-2a14.58,14.58,0,0,0,2.07-3.1l1.34-1.69c1-1.3,2.1-2.61,3.09-3.89-3.74-2-9.37-4.28-12.48-4.63a10,10,0,0,0-6.3,1.21,53,53,0,0,0-1.81,5.92,51,51,0,0,0-1.16,6.06,11.11,11.11,0,0,1-.56,2.1c-.3,2.09-.52,4-1,6.12-.31,1.64-.78,3.44-1.09,4.84-.42,1.55-.65,3-1,4.53a75.93,75.93,0,0,0-1.87,10.5c-.18,1.5-.26,3.6-.36,5a45.38,45.38,0,0,0-.6,5.14c.19,3.25-.64,6.06-.44,9.21.17,2.88.84,6.51,3.24,8.55a25.72,25.72,0,0,0,4.11,2.73c1.86,1,4.3,1.32,6.34,2a17,17,0,0,0,5.87.91c2.6-.12,5.67-1.7,8.2-2.42,6.42-1.87,13,1,18.94,2,1.16.19,2.36.47,3.52.76a13.12,13.12,0,0,0,4.49-2.24c2.38-2.25,6.32-6.47,6.8-9.45a27.24,27.24,0,0,0-.16-8.91c-1.89,1-3.58,2-5.67,3.24A6.55,6.55,0,0,1,104.15,124.17Z" transform="translate(-42.41 -33)"/><path class="cls-2" d="M156.65,58.74a4.89,4.89,0,0,0-.83-2.67,16.39,16.39,0,0,0-3-1.85,6.39,6.39,0,0,0-6.14,1.26l-1.36,1c-.21.13-.34.34-.57.46-.49.36-.92.53-1.44.87s-1.23,1.18-1.93,1.72c-1.68,1.33-4,3-5.58,4.49a25.42,25.42,0,0,1-6,4.74,13.85,13.85,0,0,0-2.47,2,17.15,17.15,0,0,1-2.22,1.33,52.7,52.7,0,0,0-7,4.24c-1.57,1.21-4.32,3-6.11,4.69a21.59,21.59,0,0,1-2.44,2.14c-.78.57-1.76,1.27-2.55,1.87s-1.68,1.07-2.5,1.84S102.77,88,102,88.66a32.39,32.39,0,0,1-4.26,3.19c-.08.1-.19.16-.29.27-2,1.38-4,3.4-6,4.73l-2,1.93-.91,1.34-.52.74-.18.61.18.6s.33,1.29,1.3,1.41a5.32,5.32,0,0,0,1.89.37h1.52l.77-.3,2.64-1.87,4.68-3,.63-.4,6.13-3.74c3.71-2.09,6-4.4,9.35-6.21l.65-.45c.62-.27,1.85-.79,2.47-1.09a52.78,52.78,0,0,0,7.9-4.68c2.47-1.72,5.29-3.67,8-5.31a29.81,29.81,0,0,0,4.18-2.56,2.84,2.84,0,0,1,.61-.53L150,68.07l4.4-3.66c.45-.3.88-.66,1.27-.92C157.15,62.17,156.91,60.65,156.65,58.74Z" transform="translate(-42.41 -33)"/><path class="cls-2" d="M112,34.49a4.81,4.81,0,0,0-2-1.39c-1.65-.45-3,.71-4.23,1.45a10.47,10.47,0,0,0-3.21,2.25c-.46.67-.73,1.5-1.27,2.19s-.82,1.2-1.3,1.82-.8,1.3-1.27,2a24,24,0,0,1-1.34,2,10.85,10.85,0,0,0-2.1,2.93A10.71,10.71,0,0,1,93.52,50c-1.91,2.26-3,4.55-4.87,7a18,18,0,0,0-2.23,3.16A22.21,22.21,0,0,1,85,62.53a12.89,12.89,0,0,1-2,2.63A14.87,14.87,0,0,0,81,68C80.35,69,80,69.53,79.34,70.37a.65.65,0,0,1-.15.2c-1,1.28-2.07,2.59-3.09,3.89l-1.34,1.69a14.58,14.58,0,0,1-2.07,3.1l-1,2-.18,1.42a1.74,1.74,0,0,0,.41,1.68l.35.62s.5.89,1.22,1c0,0,.62.61,1.79,0l2.18-1.23c1.93-3,5-5.39,6.9-8.34.32-.42.63-.78.95-1.18a67,67,0,0,0,4.87-6.36,35.88,35.88,0,0,1,2.53-3.65c2-2.62,4-5.09,6.19-7.47a50.17,50.17,0,0,0,5.76-7.25c1.26-1.87,3.38-3.25,4.7-5a11.42,11.42,0,0,0,2.22-3.83c.52-1.71,1.24-3.31,1-5.17A2.72,2.72,0,0,0,112,34.49Z" transform="translate(-42.41 -33)"/><path class="cls-2" d="M157,93.88a2.47,2.47,0,0,0-2.64-1.57,15.61,15.61,0,0,0-3.15.77,19,19,0,0,0-3,1.3c-.85.37-1.54,1-2.37,1.35a36.89,36.89,0,0,0-5.28,3c-2.87,2.12-6,3.37-9.2,4.94a74,74,0,0,0-7.85,4.66,16.88,16.88,0,0,1-2.68,1.55c-4.84,2.07-5.32,2.71-8,3.8-1.13.51-1.82.76-2.75,1.19a1.93,1.93,0,0,1-.49.27c-1.27.6-.45.21-1.61.71s-2.07.92-3,1.42c-.63.3-1,.54-1.52.8a5.08,5.08,0,0,0-1.5,1.21L100.19,121a1.23,1.23,0,0,0,.41,2.09l.38.36s1.44.54,1.72.61l1.45.11a6.55,6.55,0,0,0,2-.39c2.09-1.22,3.78-2.24,5.67-3.24a42.93,42.93,0,0,1,4.69-2.08c2.55-1,5.34-1.87,7.87-3,4.24-2,8.56-4.55,13-6.07a46.81,46.81,0,0,0,8-3.48,42.48,42.48,0,0,1,7-3,7,7,0,0,0,2.67-1.59,11.2,11.2,0,0,0,2.13-2.46C157.75,97.59,157.48,95.18,157,93.88Z" transform="translate(-42.41 -33)"/><path class="cls-2" d="M126.16,150.32c-3.65-1.77-8.43-2.94-12.09-4.56a92,92,0,0,0-13.37-4.62c-1.16-.29-2.36-.57-3.52-.76-6-1-12.52-3.85-18.94-2-2.53.72-5.6,2.3-8.2,2.42a17,17,0,0,1-5.87-.91c-2-.72-4.48-1-6.34-2a25.72,25.72,0,0,1-4.11-2.73c-2.4-2-3.07-5.67-3.24-8.55-.2-3.15.63-6,.44-9.21a45.38,45.38,0,0,1,.6-5.14c.1-1.42.18-3.52.36-5a75.93,75.93,0,0,1,1.87-10.5c.39-1.54.62-3,1-4.53.31-1.4.78-3.2,1.09-4.84.48-2.15.7-4,1-6.12a11.11,11.11,0,0,0,.56-2.1,51,51,0,0,1,1.16-6.06,53,53,0,0,1,1.81-5.92c.35-.86.72-1.7,1.1-2.54,1.7-3.44,2.82-7.6,4.72-11.17A22.3,22.3,0,0,0,67.56,51c.28-.5.66-1.23.66-1.23s.69-1,1.47-2.18c1.06-1.73.9-1.1,1.53-2.27a2.27,2.27,0,0,0,.67-1,3.65,3.65,0,0,0,.69-1.41A5.56,5.56,0,0,0,72,39.35c-.77-1.22-1.9-2.94-3.69-3.06A8.65,8.65,0,0,0,63.83,38a6.57,6.57,0,0,0-1.7,1.71,18.78,18.78,0,0,0-3.89,6.86c-.88,3.12-2.13,6.15-2.88,9.33s-2.27,5.25-3.21,8.4c-.42,1.51-1.28,3.54-1.54,5.09a38,38,0,0,0-.51,5.17c-.34,2-1.22,6.5-1.5,8a79.23,79.23,0,0,1-2.22,11.55c-1.87,6.09-4.18,12.9-4,19.56.25,6.24-.32,13.57,1.57,19.42a15.21,15.21,0,0,0,1.69,3.61c.29.49.59,1,.91,1.45a13.08,13.08,0,0,0,1.76,2.07c.58.54,1,.95,1.53,1.48a15.18,15.18,0,0,0,3.71,2.55c1.41.89,2,1.68,3.65,2.25a16.54,16.54,0,0,0,3.9,1.13,17.65,17.65,0,0,0,4.87,0,34.51,34.51,0,0,1,6.33-.66c1.64.06,3.1.14,4.81.06,3.52-.29,6.9-2,10.38-1.65,3.93.35,7.22,2.22,11.19,3.64,2.76,1,4.9,1.47,6.63,2.54s3.36,2.2,4.89,3.24a66.12,66.12,0,0,0,9.59,5.46c2,.9,3.27,1.89,4.66,2.59a77.9,77.9,0,0,0,8.18,2.84c1.56.5,3.45,1.44,4.79.5a4.37,4.37,0,0,0,1.47-3.35C140.28,155.58,131.81,153.05,126.16,150.32Z" transform="translate(-42.41 -33)"/></svg>