<svg id="Layer_1" data-name="Layer 1" xmlns="http://www.w3.org/2000/svg" viewBox="0 0 96.33 139.53"><defs><style>.cls-1{fill:#00a0df;}.cls-2{fill:#cf3339;}.cls-3{fill:#6f7271;}</style></defs><title>icon01</title><path class="cls-1" d="M128.1,130.34c-1.79-1.42-3-2.42-3-2.42-3.08-2.43-5.75-4.23-8.79-6.66-.51-.43-1.51-1.5-2-1.91-.93-.73-1.83-1.46-2.72-2.17s-1.85-1.28-2.75-2c-.65-.54-1.28-1.26-1.89-1.79-1.42-1.16-2.81-2.27-4.14-3.37-1.51-1.25-3-2.2-4.35-3.35s-2.84-2.69-4.16-3.84l-1.1-.92-.44,1.21a16.73,16.73,0,0,0-.61,5.81l-.33,4.6c-1.76,11.19-5.58,25-9.32,38.22,8.38-2,12.78-4.23,21.81-6.85,5.2-1.53,9.2-3.92,14.14-5.93,5.33-2.18,8.92-2.58,14-5.15-.8-.65-1.55-1.17-2.32-1.78S128.68,130.81,128.1,130.34Z" transform="translate(-51.83 -30)"/><path class="cls-2" d="M87,63.78c3.51-3.41,1.46-7.91.35-11.2-6.57-8.09-12.14-6.1-17.23-2.26-2,3.12-5.15,7.34-2.27,11.61C73.85,66.89,80.15,66.68,87,63.78Z" transform="translate(-51.83 -30)"/><path class="cls-3" d="M86.61,95.16c.76,2.62,1.24,5.29,1.34,5.5,0,1.82.08,3.65,0,5.45,0,.76,0,1.3-.08,2.08-.06.62-.26,1.5-.33,2.11a78.74,78.74,0,0,1-1.74,8.59c-.44,1.73-.94,3.49-1.42,5.24-.63,2.2-1,3.78-1.43,5.27-.42,1.29-1.07,2.8-1.51,4.13-.79,2.55-1.6,5.16-2.39,7.85-1,3.26-1.39,6.78-2.15,10.21-.61,2.7-2,5.69-2.48,8.17-.33,1.77-.91,3.35-1.09,4.79-.11.85.13,1.55,0,2.32.17,0,1,2.41,1.61,2.61,1,.37,3.11-1.47,3.27-1.43.06-.35.47-.83.78-1.87.2-.78.27-2.06.55-3.05.51-2,1.47-3.46,2-5.44l1-5.92c3.74-13.27,7.56-27,9.32-38.22l.33-4.6a16.73,16.73,0,0,1,.61-5.81l.44-1.21,1.1.92c1.32,1.15,2.71,2.59,4.16,3.84s2.84,2.1,4.35,3.35c1.33,1.1,2.72,2.21,4.14,3.37.61.53,1.24,1.25,1.89,1.79.9.7,1.84,1.25,2.75,2s1.79,1.44,2.72,2.17c.49.41,1.49,1.48,2,1.91,3,2.43,5.71,4.23,8.79,6.66,0,0,1.18,1,3,2.42.58.47,1.34,1.17,2,1.72s1.52,1.13,2.32,1.78c.2.16.42.3.66.49.42.32.8.83,1.2,1.18s1,.6,1.5,1c1.35,1.06,2.69,2.5,3.83,3.41.76.63,1.4.77,2,1.24,1.09.89,1.83,1.44,1.89,1.53a12,12,0,0,0,1.82,0,3.15,3.15,0,0,0,1.36-.55,5.25,5.25,0,0,0,1.46-2.84c.1-.53-.68-1.33-.58-1.44-.69-.64-1.2-1.34-2-2s-2.2-1.62-3.12-2.44c-2.12-1.78-4.26-3.7-6.7-5.62-.88-.69-2.21-1.43-3.13-2.13-2.25-1.71-4.23-3.43-6.53-5.13s-4.64-3.58-6.85-5.21c-3.29-2.34-6.35-4.34-9-6.22-.88-.62-1.57-1.23-2.4-1.77-1.36-.91-2.92-1.73-4.24-2.64a5.74,5.74,0,0,1-.88-.72,8.64,8.64,0,0,1-1-.57,41.55,41.55,0,0,1-3.64-2.92c-.49-.43-1-.78-1.52-1.31-.68-.69-1.39-1.59-2.1-2.4l-1.56-3-1.53-2.88c.81-.32,1.61-.66,2.47-1a43,43,0,0,0,4.24-1.85c1.66-.81,3.68-1.39,5.29-2.26s2.93-2,4.55-3.07c2.07-1.32,4.21-2.76,6.34-4.34,1.46-1.12,3.13-2,5.15-3.81,1.61-1.43,3.48-3.57,5.1-5.23a66.42,66.42,0,0,0,4.69-5.41c.5-.58,1.41-1.27,1.93-1.86a90.33,90.33,0,0,0,8.86-12.32,45.76,45.76,0,0,0,3.84-8.19,19.69,19.69,0,0,0,.92-8.38A19,19,0,0,0,143.73,30a12.56,12.56,0,0,0-5.08.74c-4.09,1.78-6,6.32-7.53,10.64-.45,1.36-1.25,2.86-1.76,4.28a23.7,23.7,0,0,1-2.59,6c-.76,1.11-2.27,2.29-3.22,3.38a59.21,59.21,0,0,1-7.19,7.5c-1.15,1-2,2.2-3.25,3.13-1.46,1.18-3.2,2-4.67,3.2-2.29,1.73-4.48,3.44-6.49,5a75.59,75.59,0,0,1-8.63,5.55c-1.72,1-3.29,1.92-5,2.81-.1-.57-.25-1.33-.22-1.27a31.51,31.51,0,0,0-1.81-5.11c-.36-.82-.62-1.7-1-2.38a24.12,24.12,0,0,1-1.18-2.38,2.17,2.17,0,0,0-1.74-1.48,4.06,4.06,0,0,0-1.37.49c-.23.16-.35.45-.55.63a10.41,10.41,0,0,0,.32,1.85c.14.74.23,1.42.37,2A28.93,28.93,0,0,0,81.84,78l.61,3.37s1,3,1.08,3.33c-1.12.5-2.28,1-3.59,1.55-1,.42-2.9,1-4,1.46-1.74.75-4.19,2-7.34,3.13-1.5.56-3.45,1-5,1.63-2,.79-3.89,1.33-5.58,2.17-.95.45-1.82,1.16-2.59,1.6a15.55,15.55,0,0,0-3,2c-1,1.07-.56,2.15,1.08,3,1.08.52,3.84-.35,3.84-.35,2.06-.56,4.09-1.09,6.09-1.62s4.16-.9,6.16-1.41c1.75-.44,3.41-1.07,5.11-1.55C78.52,95.13,82.28,94,86,92.81Z" transform="translate(-51.83 -30)"/></svg>