<svg id="Layer_1" data-name="Layer 1" xmlns="http://www.w3.org/2000/svg" viewBox="0 0 152.09 79.48"><defs><style>.cls-1{fill:#cb007b;}.cls-2{fill:#a8ad00;}.cls-3{fill:#6f7271;}</style></defs><title>icon02</title><path class="cls-1" d="M142.54,106a20.88,20.88,0,0,0,4.25-2.78c2.81-2.63,6-5.4,8.81-8,1.89-1.7,3.25-3.45,5-5.2,2.09-2.17,4.52-4.35,6.51-6.72,2.23-2.69,3.31-6.6,4-10,.46-2.26,1.08-6.28-.25-8.32-1-1.56-6.91-2.9-7.45-.52-4.07-.08-8.5,1.91-11.81,4a30.89,30.89,0,0,0-5.28,5.08A27.19,27.19,0,0,0,144,76.15c-.51.75-1.39,1.36-1.82,2.09s-.38,1.54-.82,2.25a18,18,0,0,0-1.21,1.59,24.3,24.3,0,0,1-2,3.83c-1.52,2.18-3.76,3.48-5.57,5.39a15.32,15.32,0,0,0-2.27,3.33c-1.3,2.15-2.81,3.91-4.24,5.93a6.73,6.73,0,0,0-.79,2.39c-1.08,3.21-2.77,5.16-4.48,8-.07.48-1.19,2.17-1.24,2.82s1.76,3.15,2,3.54l0,0,3.48-1.09,6.07-2.33,8.7-5.31,1.09-.6C140.87,107.84,140.84,107.47,142.54,106Z" transform="translate(-23.91 -59.99)"/><path class="cls-2" d="M108,105.25c-.38-.48-.93-.63-1.32-1a6.07,6.07,0,0,1-1.64-2.68c-1.06-2.64-2.7-4.21-4.65-6.17-1.26-1.29-2.1-3-3.28-4.28-2-2.2-5.19-3.12-7.58-4.77a18.24,18.24,0,0,1-2.15-2c-1.92-1.78-4.83-2.92-7-4.25s-4.35-3.18-6.86-3.8c-1.78-.5-3.73-.26-5.56-.61-3.06-.55-6-1.58-9-2.11-3.66-.61-7.37-1.35-11-1.65-3.51-.28-7.14-1.44-10.73-1.35-1.72,0-4-.23-5.36.8s-2,3.73-2.25,5.31a35.44,35.44,0,0,0,.78,13.76A12.73,12.73,0,0,0,31.43,93C32.89,95,34,97.67,35.57,99.57a46.6,46.6,0,0,1,4.58,6.05,28.19,28.19,0,0,0,5.43,6.12c1.56,1.05,4.71,1.86,6.28,3,.65.51.75.25,1.42.82a14.57,14.57,0,0,0,4.82,2.71c5.19,2.09,10.43,4.22,15.56,6.6a24.3,24.3,0,0,0,16.11,1.8c3.5-.86,7-1.51,10.38-2.37a26.21,26.21,0,0,0,7.49-4,12.93,12.93,0,0,0,4.17-4.5,9.62,9.62,0,0,0,.94-2.35l-.19-.16C110.93,110.81,110.11,107.44,108,105.25Z" transform="translate(-23.91 -59.99)"/><path class="cls-3" d="M174.09,63c-2-2-3-2.49-5.69-2.49-1.89,0-2.68-.61-4.44-.39-1.32.12-4.76.95-6,1.26-3,.75-4.43,2.57-7.13,3.74s-4.67,3.32-6.84,5.17c-2.59,2.08-4.34,5.25-6.62,7.64-2.48,2.54-3.45,5.3-5.87,7.55a32.63,32.63,0,0,0-6,7.8A47,47,0,0,1,122.16,98c-.73,1-1.09,2.25-2,3.39-1.41,2.06-2.16,4-3.83,5.76-.51.59-2.81-4.35-2.81-4.35a58,58,0,0,0-3.66-5,17.66,17.66,0,0,0-2.44-3.26c-4-3.29-6.49-6.73-11-9.54-2-1.21-2.85-2.32-6.46-5a57.24,57.24,0,0,0-7.06-5.14c-1.86-1.12-4.39-1.66-5.91-3a8.41,8.41,0,0,0-2.8-2c-8.58-3.63-15.3-7.19-24.47-8.57C46.91,60.86,44,59.84,41,60c-1.06.05-4.66.23-5.6.38a22.14,22.14,0,0,0-5.68,1.94c-3.29,2-4.58,5.18-5.55,9.43-.45,2-.14,4.39-.14,6.45a38.12,38.12,0,0,0,0,5.44c.16-.09.31,3.57.41,3.46A8,8,0,0,0,25,89.93c.33,1.18.86,2.21,1.15,3.47.42,1.71,1.51,2.48,2.16,4.15.52,1.46,1.06,1.28,1.53,2.69,1.14,3.13,3.36,5.06,5.18,7.69a39.8,39.8,0,0,0,4.39,4.74,24.88,24.88,0,0,0,3.16,2.9c1,.78,2.17,1.16,3.23,2.08,1.31,1.21,7.11,6.18,9,7.23s9.51,3.15,11.15,3.56c3,.8,5.94,1.44,9.08,2,3.46.59,6.2.56,9.58,1a33.57,33.57,0,0,0,5.74-.14c1.37-.07,2.68-.32,4-.49a19.62,19.62,0,0,0,5.86-1.46c1.65-.77,3.29-1.64,5-2.5a24.1,24.1,0,0,0,4.49-2.88c1-.87,1.61-2,2.59-2.87a6.13,6.13,0,0,0,2.13-2.43c2.28.84,2.11,3.67,2.64,4.87a6.9,6.9,0,0,1,.87,3.18c0,1.15.46,2.16.47,3.2a22.77,22.77,0,0,1-.53,6.15c-.14.66-.81,2.11-.39,2.86.77,1.54,2.34-.42,2.76-1,1.52-2.21,2.77-3.14,3.11-5.9.09-.86.86-2.25.64-3.22.06-.83-.09-2.59.06-3.57l-.25-1.78c-.61-2.75-.14-2-.88-4.22a4.58,4.58,0,0,0-1.22-1.81c-.27-.39-2-2.74-2-3.54s1.17-2.34,1.24-2.82c1.71-2.88,3.4-4.83,4.48-8a6.73,6.73,0,0,1,.79-2.39c1.43-2,2.94-3.78,4.24-5.93a15.32,15.32,0,0,1,2.27-3.33c1.81-1.91,4.05-3.21,5.57-5.39a24.3,24.3,0,0,0,2-3.83,18,18,0,0,1,1.21-1.59c.44-.71.44-1.61.82-2.25s1.31-1.34,1.82-2.09a27.19,27.19,0,0,1,2.26-2.63,30.89,30.89,0,0,1,5.28-5.08c3.31-2.14,7.74-4.13,11.81-4,.54-2.38,6.41-1,7.45.52,1.33,2,.71,6.06.25,8.32-.72,3.43-1.8,7.34-4,10-2,2.37-4.42,4.55-6.51,6.72-1.7,1.75-3.06,3.5-5,5.2-2.85,2.61-6,5.38-8.81,8a20.88,20.88,0,0,1-4.25,2.78c-1.7,1.5-1.67,1.87-1.48,2s.17.08.17.14a13.67,13.67,0,0,0,3.49-1.62c1-.65,3.16-1.8,4.14-2.56,2.72-2,5.41-4.49,8.09-6.5,1.28-1,2.67-2.37,3.89-3.38,1.41-1.31,3.29-2.3,4.68-3.61a49.27,49.27,0,0,0,6.35-6.82c1-1.35,1.74-4,3-6.63.95-2.1,1-4.89,1.13-7.25C176.1,67.22,175.89,64.73,174.09,63Zm-62.28,52.88a12.93,12.93,0,0,1-4.17,4.5,26.21,26.21,0,0,1-7.49,4c-3.38.86-6.88,1.51-10.38,2.37a24.3,24.3,0,0,1-16.11-1.8c-5.13-2.38-10.37-4.51-15.56-6.6a14.57,14.57,0,0,1-4.82-2.71c-.67-.57-.77-.31-1.42-.82-1.57-1.15-4.72-2-6.28-3a28.19,28.19,0,0,1-5.43-6.12,46.6,46.6,0,0,0-4.58-6.05C34,97.67,32.89,95,31.43,93a12.73,12.73,0,0,1-1.05-2.52,35.44,35.44,0,0,1-.78-13.76c.23-1.58.88-4.39,2.25-5.31s3.64-.8,5.36-.8c3.59-.09,7.22,1.07,10.73,1.35,3.67.3,7.38,1,11,1.65,3,.53,5.94,1.56,9,2.11,1.83.35,3.78.11,5.56.61,2.51.62,4.62,2.48,6.86,3.8s5.08,2.47,7,4.25a18.24,18.24,0,0,0,2.15,2c2.39,1.65,5.6,2.57,7.58,4.77,1.18,1.32,2,3,3.28,4.28,2,2,3.59,3.53,4.65,6.17a6.07,6.07,0,0,0,1.64,2.68c.39.4.94.55,1.32,1,2.09,2.19,2.91,5.56,4.54,8.09l.19.16A9.62,9.62,0,0,1,111.81,115.85Z" transform="translate(-23.91 -59.99)"/></svg>