<svg id="Layer_1" data-name="Layer 1" xmlns="http://www.w3.org/2000/svg" viewBox="0 0 126.09 131.39"><defs><style>.cls-1{fill:#f18a00;}.cls-2{fill:#6f7271;}</style></defs><title>icon03</title><path class="cls-1" d="M77.52,62.92c3.74-.73,7.25,0,11.11,1L96.76,67c3.41,1,5.72,1.66,8.15,3.74l4.61,3.78a80.28,80.28,0,0,1,9,7.89,18.74,18.74,0,0,1,2.67,4.38l1.14,2.29c2.78,4.85,3.43,12.61,3.43,12.69.6,3.57,0,5.06-1,8.13l-1.38,4a41.23,41.23,0,0,1-3.45,8.41,47.6,47.6,0,0,1-8,9.31,21.53,21.53,0,0,1-5.77,3.46l-4.3,2.27-1.66,1.18-3.5,2.18c-.2.08-.33.11-.49.17l4.57.27,2.37.37a19.51,19.51,0,0,0,6,.45A23.37,23.37,0,0,0,115,140.2l5-1.62,6.13-1.27c4.82-1.47,8-3.56,10.08-6.87l1.4-2.13c2.45-3.74,4.8-7.25,5.7-11.67l1.79-8.65.23-6.25V96a33.37,33.37,0,0,0-.59-9l-.38-1.55c-1-4.5-2.22-9.64-4.86-13.3a82.87,82.87,0,0,0-10.62-12.26,77.42,77.42,0,0,0-10.24-3.88c-30.22-4-48.29,3.41-57.71,16.73C65.71,67.7,71.73,64,77.52,62.92Z" transform="translate(-36.91 -33.94)"/><path class="cls-1" d="M155.34,94.11l.43,2.56.39,2.12s-.28,5.87-.33,6.06a26.78,26.78,0,0,1-3,7.74l-1.63,3.35a24.8,24.8,0,0,1-4.41,6.24l-2.72,3.2-3.35,3.29L139,130.13l-2.35,2.34-3.36,3.25-2,1.2-3.48,2.29c-2.56,2.29-4.71,3.06-7.93,4.21l-.85.32a77.64,77.64,0,0,1-20.34,4.52c-8.51.72-18,0-29.83-2.39a20.65,20.65,0,0,1-3.65-1.15c6,9.91,14.91,17.41,28.74,20.49,40.65,2.37,68.07-31,69.09-62.5a47.52,47.52,0,0,0-9.62-24.17,27.09,27.09,0,0,1,1.82,7.38Z" transform="translate(-36.91 -33.94)"/><path class="cls-1" d="M97.32,130.62c5.12-2.14,10.41-4.36,13.91-9l2.47-2.78a18.37,18.37,0,0,0,4.36-5.81c.6-1.58.27-3.91,0-5.78l-.18-1.54a53.89,53.89,0,0,0-3.57-16.12c-1.51-3.77-3.42-6.06-5.9-9,0,0-4.46-5-4.46-5-.12-.15-.77-.71-.77-.71-3.19-2.66-7.1-6-11.34-5.83l-8.56.72c-3.87.58-7.15,3.23-10.4,5.82L69.94,77.9a27.76,27.76,0,0,0-7.23,7.33L59,91.48c-2.83,4.15-3.65,9.48-4.18,14.2a18,18,0,0,0,3.53,13L60,120.75c1.51,2,3.23,4.3,5.26,5.61l4.75,2,6,3.44c6.82,3.66,13.26,2.29,20.77-.9Z" transform="translate(-36.91 -33.94)"/><path class="cls-2" d="M82.81,34.9,72.82,38l-6.34,3.19c-3.33,1.63-7,3.67-9.88,7l-3,5s-2.77,3.85-3,4.13l-1.58,3-2.1,2.14c-4.11,5.46-6.19,11.45-8,18.86l-1.42,6.79-.13,6.31a45.3,45.3,0,0,0,0,11.93l.52,3.5,1,6L42,124.49c1.07,2.75,1.84,4.76,4,6.81L48,133.85a8.71,8.71,0,0,0,3.45,3.44l6.38,3.55a55.23,55.23,0,0,0,7.32,3.88,20.65,20.65,0,0,0,3.65,1.15c11.82,2.34,21.32,3.11,29.83,2.39A77.64,77.64,0,0,0,119,143.74l.85-.32c3.22-1.15,5.37-1.92,7.93-4.21l3.48-2.29,2-1.2,3.36-3.25,2.35-2.34,1.72-1.46,3.35-3.29,2.72-3.2a24.8,24.8,0,0,0,4.41-6.24l1.63-3.35a26.78,26.78,0,0,0,3-7.74c0-.19.34-6,.34-6l-.4-2.14-.43-2.56-.14-8.19a27.09,27.09,0,0,0-1.82-7.38c-1.08-2.87-4.18-9.23-4.18-9.23a43.36,43.36,0,0,0-4.61-7l-3.91-5.19a106.62,106.62,0,0,0-10.55-12.81c-1.76-1.73-4.56-2.49-7.07-3.18l-12.38-4c-5-1.72-11.56-3.61-17.46-3.21ZM76,131.76l-6-3.44-4.75-2c-2-1.31-3.75-3.62-5.26-5.61l-1.61-2.06a18,18,0,0,1-3.53-13c.53-4.72,1.35-10.05,4.18-14.2l3.71-6.25a27.76,27.76,0,0,1,7.23-7.33l2.94-2.28c3.25-2.59,6.53-5.24,10.4-5.82l8.56-.72c4.24-.17,8.15,3.17,11.34,5.83,0,0,.65.56.77.71,0,0,4.41,5,4.46,5,2.48,2.89,4.39,5.18,5.9,9a53.89,53.89,0,0,1,3.57,16.12l.18,1.54c.27,1.87.6,4.2,0,5.78a18.37,18.37,0,0,1-4.36,5.81l-2.47,2.78c-3.5,4.62-8.79,6.84-13.91,9l-.56.24C89.25,134.05,82.81,135.42,76,131.76ZM145.39,96v5.78l-.23,6.25-1.79,8.65c-.9,4.42-3.25,7.93-5.7,11.67l-1.4,2.13c-2.12,3.31-5.26,5.4-10.08,6.87l-6.13,1.27-5,1.62a23.37,23.37,0,0,1-5.84,1.79,19.51,19.51,0,0,1-6-.45l-2.37-.37-4.57-.27c.16-.06.29-.09.49-.17l3.5-2.18,1.66-1.18,4.3-2.27a21.53,21.53,0,0,0,5.77-3.46,47.6,47.6,0,0,0,8-9.31,41.23,41.23,0,0,0,3.45-8.41l1.38-4c1.06-3.07,1.62-4.56,1-8.13,0-.08-.65-7.84-3.43-12.69l-1.14-2.29a18.74,18.74,0,0,0-2.67-4.38,80.28,80.28,0,0,0-9-7.89l-4.61-3.78c-2.43-2.08-4.74-2.77-8.15-3.74l-8.13-3.06c-3.86-1-7.37-1.72-11.11-1C71.73,64,65.71,67.7,61,72.67a33.16,33.16,0,0,0-6.18,8.86c-2.8,6-5.73,13-4.78,20.32l.18,2c.21,2.82.44,5.46,1.72,8a22.69,22.69,0,0,1,1.67,5.73,28.2,28.2,0,0,0,3.77,9.72l-2.91-2.6-4.81-4.53c-2.38-2.43-3.33-4.87-4.64-8.38L42.26,107l-.74-1.07c-1-1.53-1-3.86-1-6l0-6.57c.61-4.26,2.42-8.15,4.13-11.92l1.47-3.36a27.53,27.53,0,0,1,4.17-6.61l5.2-6.19L57.3,62.5l2.23-3.38a33.6,33.6,0,0,1,5.41-4.49l2.29-1.69L74.39,48c4.52-2.47,9.07-4.69,14.67-5l8.11.06c.43.06,10,2,13.85,4l3.7,2.28,2.34,1.54a68.32,68.32,0,0,1,11.88,9,82.87,82.87,0,0,1,10.62,12.26c2.64,3.66,3.85,8.8,4.86,13.3l.38,1.55A33.37,33.37,0,0,1,145.39,96Z" transform="translate(-36.91 -33.94)"/></svg>