<svg id="Layer_1" data-name="Layer 1" xmlns="http://www.w3.org/2000/svg" viewBox="0 0 553.9 141.47"><defs><style>.cls-1{fill:#55585f;}</style></defs><title>logo</title><path class="cls-1" d="M451.15,29.42c-5.41,0-8.92,4.25-9.06,10.76V89.49c0,7.26-1.36,11.77-4.32,13.76l-3.49,2.48a9.22,9.22,0,0,0-4.36,8c0,5.66,4.36,9.7,10.56,9.7,8.09,0,16.31-7.51,18.68-17,.89-3.34.89-4.52.89-12.62V40.18C460.05,33.8,456.54,29.42,451.15,29.42Z" transform="translate(-23.1 -29.42)"/><path class="cls-1" d="M486,29.42c-5.28,0-8.81,4.25-8.93,10.76V89.89c0,6.41,3.65,10.74,9,10.74s8.77-4.21,8.93-10.74V40.18C495,33.8,491.36,29.42,486,29.42Z" transform="translate(-23.1 -29.42)"/><path class="cls-1" d="M313.87,29.42c-18.92,0-33.73,16-33.73,36.49V89.6c0,6.59,3.76,11.05,9.28,11.05s9-4.34,9.1-11.05V65.36c.15-9.45,6.65-16.62,15.35-16.62,8.27,0,14.89,7.14,15.06,16.16V89.6c0,6.59,3.67,11.05,9.2,11.05s9-4.34,9.13-11.05V65.45C347.25,45.39,332.34,29.42,313.87,29.42Z" transform="translate(-23.1 -29.42)"/><path class="cls-1" d="M543.65,29.42c-18.94,0-33.79,16-33.79,36.49V89.6c0,6.59,3.77,11.05,9.31,11.05s9-4.34,9.13-11.05V65.36c.09-9.45,6.6-16.62,15.35-16.62,8.22,0,14.87,7.14,15.08,16.16V89.6c0,6.59,3.63,11.05,9.15,11.05s9-4.34,9.12-11.05V65.45C577,45.39,562.12,29.42,543.65,29.42Z" transform="translate(-23.1 -29.42)"/><path class="cls-1" d="M112.08,29.42c-5.39,0-8.92,4.25-9.07,10.74V68.8c0,7-4.68,12.53-10.89,12.53a11,11,0,0,1-9.87-6.67c-1-2.51-1.22-4.22-1.22-10V40.16c0-6.37-3.63-10.74-8.89-10.74H72c-5.28,0-8.78,4.25-8.9,10.74V68.8c0,7-4.73,12.53-11,12.53a11,11,0,0,1-9.88-6.67c-.94-2.51-1.2-4.22-1.2-10V40.16c0-6.37-3.63-10.74-9.07-10.74-5.25,0-8.72,4.25-8.89,10.74V66.34c0,7.73,1.35,14.38,3.9,18.92,5.44,9.46,15.26,15.39,25.26,15.39a27.85,27.85,0,0,0,19.88-8.72,28.74,28.74,0,0,0,20.08,8.72A28.1,28.1,0,0,0,114.61,89c4.51-6.1,6.37-12.62,6.37-22.07V40.16C121,33.79,117.32,29.42,112.08,29.42Z" transform="translate(-23.1 -29.42)"/><path class="cls-1" d="M206.05,75.14c4,15.1,16.74,25.92,32,25.92,18.88,0,33.78-15.94,33.78-36.42,0-19.21-15.26-35.22-33.62-35.22-15.36,0-28.39,11.3-32.28,26.36H194.74c-3.88-15-17-26.16-32.43-26.16-18.35,0-33.47,16.12-33.47,35.63,0,20,14.81,36.05,33.32,36.05,15.59,0,28.4-10.89,32.42-26.16ZM238.2,49c8.36,0,15.25,7.3,15.25,15.86,0,9.58-6.63,16.87-15.41,16.87-8.36,0-15.08-7.29-15.08-16.44C223,56.34,229.82,49,238.2,49ZM162.16,82c-8.34,0-15.09-7.29-15.09-16.42s6.86-16.33,15.24-16.33,15.25,7.29,15.25,15.9C177.56,74.68,170.93,82,162.16,82Z" transform="translate(-23.1 -29.42)"/><path class="cls-1" d="M400.33,105.11v-10a33.54,33.54,0,0,0-9.71-65.74c-17.83,0-32.68,15.26-32.68,33.64a33.6,33.6,0,0,0,24.49,32.23V105a33.78,33.78,0,0,0-24.29,32.46c0,18.35,14.93,33.46,33,33.46a33.54,33.54,0,0,0,9.15-65.78Zm-24.16-42c0-8.38,6.76-15.27,14.71-15.27,8.91,0,15.67,6.6,15.67,15.37a15.19,15.19,0,0,1-30.38-.1Zm15.35,89.6a15.23,15.23,0,0,1-15.23-15.23c0-8.4,6.77-15.26,14.76-15.26,8.92,0,15.68,6.58,15.68,15.37A15.11,15.11,0,0,1,391.52,152.66Z" transform="translate(-23.1 -29.42)"/></svg>